<svg width="1397" height="595" viewBox="0 0 1397 595" fill="none" xmlns="http://www.w3.org/2000/svg">
<rect width="1397" height="595" fill="#0FA3B1"/>
<path d="M554.759 210.372H502.803C488.978 210.372 482 217.083 482 230.377V301.522C482 303.265 482.936 304.338 484.952 304.338H500.658C502.537 304.338 503.747 303.265 503.747 301.522V298.821C503.747 292.231 506.524 288.64 513.426 287.947H554.759C569.924 287.947 576.772 281.373 576.772 267.007V231.312C576.772 216.946 569.924 210.372 554.759 210.372ZM555.048 260.965C555.048 268.757 553.283 270.363 544.015 270.363H522.001C512.741 270.363 506.829 273.452 503.739 279.494V235.612C503.739 229.57 505.216 227.957 512.596 227.957H544.015C553.283 227.957 555.048 229.57 555.048 237.354V260.965Z" fill="white"/>
<path d="M626.574 249.704C614.628 249.704 609.522 255.745 609.522 265.949V301.788C609.522 303.402 608.715 304.338 606.836 304.338H592.607C590.727 304.338 589.792 303.402 589.792 301.788V236.281C589.792 234.668 590.727 233.725 592.607 233.725H604.553C606.303 233.725 607.239 234.668 607.239 236.281V246.85C609.522 238.13 616.104 233.694 627.784 233.694H632.616C634.358 233.694 635.294 234.638 635.294 236.251V247.155C635.294 248.897 634.358 249.704 632.616 249.704H626.574Z" fill="white"/>
<path d="M719.193 285.14C719.193 298.433 713.288 304.338 699.196 304.338H664.293C650.33 304.338 644.288 298.433 644.288 285.14V252.938C644.288 239.652 650.33 233.74 664.293 233.74H699.196C713.288 233.74 719.193 239.652 719.193 252.938V285.14ZM699.462 258.028C699.462 251.043 698.123 249.704 689.798 249.704H673.819C665.365 249.704 664.019 251.043 664.019 258.028V280.041C664.019 287.019 665.365 288.366 673.819 288.366H689.798C698.123 288.366 699.462 287.019 699.462 280.041V258.028Z" fill="white"/>
<path d="M739.06 249.704H732.341C730.591 249.704 729.655 248.897 729.655 247.155V236.281C729.655 234.668 730.591 233.725 732.341 233.725H739.053V225.004C739.06 211.711 746.038 205 759.864 205H776.376C778.255 205 779.062 205.944 779.062 207.549V218.423C779.062 220.173 778.255 220.972 776.376 220.972H767.655C760.267 220.972 758.791 222.585 758.791 228.626V233.725H776.376C778.255 233.725 779.062 234.668 779.062 236.281V247.155C779.062 248.897 778.255 249.704 776.376 249.704H758.791V301.789C758.791 303.402 757.855 304.338 755.975 304.338H741.746C739.867 304.338 739.06 303.402 739.06 301.789V249.704Z" fill="white"/>
<path d="M793.831 249.704H787.127C785.385 249.704 784.449 248.897 784.449 247.155V236.281C784.449 234.668 785.385 233.725 787.127 233.725H793.846V225.004C793.831 211.711 800.824 205 814.635 205H831.146C833.026 205 833.832 205.944 833.832 207.549V218.423C833.832 220.173 833.026 220.972 831.146 220.972H822.419C815.038 220.972 813.562 222.585 813.562 228.626V233.725H831.146C833.026 233.725 833.832 234.668 833.832 236.281V247.155C833.832 248.897 833.026 249.704 831.146 249.704H813.562V301.789C813.562 303.402 812.618 304.338 810.739 304.338H796.509C794.63 304.338 793.831 303.402 793.831 301.789V249.704Z" fill="white"/>
<path d="M893.831 331.723H864.566C851.417 331.723 845.779 326.625 845.779 314.001V312.662C845.74 312.302 845.782 311.937 845.904 311.596C846.025 311.254 846.221 310.944 846.479 310.689C846.736 310.434 847.047 310.24 847.39 310.122C847.733 310.004 848.097 309.964 848.457 310.006H862.154C864.033 310.006 864.969 310.95 864.969 312.692V313.362C864.969 316.048 866.453 317.121 869.405 317.121H886.32C894.371 317.121 896.387 315.112 896.387 308.264V287.088C893.298 293.129 887.393 296.219 878.125 296.219H864.429C850.466 296.219 844.287 290.314 844.287 277.021V236.281C844.269 235.929 844.327 235.578 844.458 235.251C844.588 234.923 844.788 234.628 845.043 234.385C845.298 234.143 845.603 233.958 845.936 233.844C846.269 233.73 846.623 233.689 846.973 233.725H861.34C863.082 233.725 864.026 234.668 864.026 236.281V271.961C864.026 278.938 865.502 280.285 873.826 280.285H884.03C892.887 280.285 896.38 276.655 896.38 269.275V236.281C896.38 234.668 897.316 233.725 899.066 233.725H913.44C913.783 233.691 914.13 233.735 914.455 233.852C914.78 233.968 915.075 234.156 915.318 234.4C915.562 234.645 915.749 234.94 915.865 235.266C915.98 235.591 916.023 235.938 915.989 236.281V310.379C915.981 324.464 908.463 331.723 893.831 331.723Z" fill="white"/>
<path d="M496.304 355.336C494.096 355.336 492.112 354.952 490.352 354.184C488.624 353.384 487.264 352.296 486.272 350.92C485.28 349.512 484.768 347.896 484.736 346.072H489.392C489.552 347.64 490.192 348.968 491.312 350.056C492.464 351.112 494.128 351.64 496.304 351.64C498.384 351.64 500.016 351.128 501.2 350.104C502.416 349.048 503.024 347.704 503.024 346.072C503.024 344.792 502.672 343.752 501.968 342.952C501.264 342.152 500.384 341.544 499.328 341.128C498.272 340.712 496.848 340.264 495.056 339.784C492.848 339.208 491.072 338.632 489.728 338.056C488.416 337.48 487.28 336.584 486.32 335.368C485.392 334.12 484.928 332.456 484.928 330.376C484.928 328.552 485.392 326.936 486.32 325.528C487.248 324.12 488.544 323.032 490.208 322.264C491.904 321.496 493.84 321.112 496.016 321.112C499.152 321.112 501.712 321.896 503.696 323.464C505.712 325.032 506.848 327.112 507.104 329.704H502.304C502.144 328.424 501.472 327.304 500.288 326.344C499.104 325.352 497.536 324.856 495.584 324.856C493.76 324.856 492.272 325.336 491.12 326.296C489.968 327.224 489.392 328.536 489.392 330.232C489.392 331.448 489.728 332.44 490.4 333.208C491.104 333.976 491.952 334.568 492.944 334.984C493.968 335.368 495.392 335.816 497.216 336.328C499.424 336.936 501.2 337.544 502.544 338.152C503.888 338.728 505.04 339.64 506 340.888C506.96 342.104 507.44 343.768 507.44 345.88C507.44 347.512 507.008 349.048 506.144 350.488C505.28 351.928 504 353.096 502.304 353.992C500.608 354.888 498.608 355.336 496.304 355.336ZM537.196 328.696V355H532.828V351.112C531.996 352.456 530.828 353.512 529.324 354.28C527.852 355.016 526.22 355.384 524.428 355.384C522.38 355.384 520.54 354.968 518.908 354.136C517.276 353.272 515.98 351.992 515.02 350.296C514.092 348.6 513.628 346.536 513.628 344.104V328.696H517.948V343.528C517.948 346.12 518.604 348.12 519.916 349.528C521.228 350.904 523.02 351.592 525.292 351.592C527.628 351.592 529.468 350.872 530.812 349.432C532.156 347.992 532.828 345.896 532.828 343.144V328.696H537.196ZM542.939 341.752C542.939 339.064 543.483 336.712 544.571 334.696C545.659 332.648 547.147 331.064 549.035 329.944C550.955 328.824 553.083 328.264 555.419 328.264C557.723 328.264 559.723 328.76 561.419 329.752C563.115 330.744 564.379 331.992 565.211 333.496V328.696H569.627V355H565.211V350.104C564.347 351.64 563.051 352.92 561.323 353.944C559.627 354.936 557.643 355.432 555.371 355.432C553.035 355.432 550.923 354.856 549.035 353.704C547.147 352.552 545.659 350.936 544.571 348.856C543.483 346.776 542.939 344.408 542.939 341.752ZM565.211 341.8C565.211 339.816 564.811 338.088 564.011 336.616C563.211 335.144 562.123 334.024 560.747 333.256C559.403 332.456 557.915 332.056 556.283 332.056C554.651 332.056 553.163 332.44 551.819 333.208C550.475 333.976 549.403 335.096 548.603 336.568C547.803 338.04 547.403 339.768 547.403 341.752C547.403 343.768 547.803 345.528 548.603 347.032C549.403 348.504 550.475 349.64 551.819 350.44C553.163 351.208 554.651 351.592 556.283 351.592C557.915 351.592 559.403 351.208 560.747 350.44C562.123 349.64 563.211 348.504 564.011 347.032C564.811 345.528 565.211 343.784 565.211 341.8ZM594.173 333.544C595.037 332.04 596.317 330.792 598.013 329.8C599.741 328.776 601.741 328.264 604.013 328.264C606.349 328.264 608.461 328.824 610.349 329.944C612.269 331.064 613.773 332.648 614.861 334.696C615.949 336.712 616.493 339.064 616.493 341.752C616.493 344.408 615.949 346.776 614.861 348.856C613.773 350.936 612.269 352.552 610.349 353.704C608.461 354.856 606.349 355.432 604.013 355.432C601.773 355.432 599.789 354.936 598.061 353.944C596.365 352.92 595.069 351.656 594.173 350.152V367.48H589.805V328.696H594.173V333.544ZM612.029 341.752C612.029 339.768 611.629 338.04 610.829 336.568C610.029 335.096 608.941 333.976 607.565 333.208C606.221 332.44 604.733 332.056 603.101 332.056C601.501 332.056 600.013 332.456 598.637 333.256C597.293 334.024 596.205 335.16 595.373 336.664C594.573 338.136 594.173 339.848 594.173 341.8C594.173 343.784 594.573 345.528 595.373 347.032C596.205 348.504 597.293 349.64 598.637 350.44C600.013 351.208 601.501 351.592 603.101 351.592C604.733 351.592 606.221 351.208 607.565 350.44C608.941 349.64 610.029 348.504 610.829 347.032C611.629 345.528 612.029 343.768 612.029 341.752ZM626.611 319.48V355H622.243V319.48H626.611ZM632.423 341.752C632.423 339.064 632.967 336.712 634.055 334.696C635.143 332.648 636.631 331.064 638.519 329.944C640.439 328.824 642.567 328.264 644.903 328.264C647.207 328.264 649.207 328.76 650.903 329.752C652.599 330.744 653.863 331.992 654.695 333.496V328.696H659.111V355H654.695V350.104C653.831 351.64 652.535 352.92 650.807 353.944C649.111 354.936 647.127 355.432 644.855 355.432C642.519 355.432 640.407 354.856 638.519 353.704C636.631 352.552 635.143 350.936 634.055 348.856C632.967 346.776 632.423 344.408 632.423 341.752ZM654.695 341.8C654.695 339.816 654.295 338.088 653.495 336.616C652.695 335.144 651.607 334.024 650.231 333.256C648.887 332.456 647.399 332.056 645.767 332.056C644.135 332.056 642.647 332.44 641.303 333.208C639.959 333.976 638.887 335.096 638.087 336.568C637.287 338.04 636.887 339.768 636.887 341.752C636.887 343.768 637.287 345.528 638.087 347.032C638.887 348.504 639.959 349.64 641.303 350.44C642.647 351.208 644.135 351.592 645.767 351.592C647.399 351.592 648.887 351.208 650.231 350.44C651.607 349.64 652.695 348.504 653.495 347.032C654.295 345.528 654.695 343.784 654.695 341.8ZM677.197 332.296H671.677V355H667.309V332.296H663.901V328.696H667.309V326.824C667.309 323.88 668.061 321.736 669.565 320.392C671.101 319.016 673.549 318.328 676.909 318.328V321.976C674.989 321.976 673.629 322.36 672.829 323.128C672.061 323.864 671.677 325.096 671.677 326.824V328.696H677.197V332.296ZM693.762 355.432C691.298 355.432 689.058 354.872 687.042 353.752C685.058 352.632 683.49 351.048 682.338 349C681.218 346.92 680.658 344.52 680.658 341.8C680.658 339.112 681.234 336.744 682.386 334.696C683.57 332.616 685.17 331.032 687.186 329.944C689.202 328.824 691.458 328.264 693.954 328.264C696.45 328.264 698.706 328.824 700.722 329.944C702.738 331.032 704.322 332.6 705.474 334.648C706.658 336.696 707.25 339.08 707.25 341.8C707.25 344.52 706.642 346.92 705.426 349C704.242 351.048 702.626 352.632 700.578 353.752C698.53 354.872 696.258 355.432 693.762 355.432ZM693.762 351.592C695.33 351.592 696.802 351.224 698.178 350.488C699.554 349.752 700.658 348.648 701.49 347.176C702.354 345.704 702.786 343.912 702.786 341.8C702.786 339.688 702.37 337.896 701.538 336.424C700.706 334.952 699.618 333.864 698.274 333.16C696.93 332.424 695.474 332.056 693.906 332.056C692.306 332.056 690.834 332.424 689.49 333.16C688.178 333.864 687.122 334.952 686.322 336.424C685.522 337.896 685.122 339.688 685.122 341.8C685.122 343.944 685.506 345.752 686.274 347.224C687.074 348.696 688.13 349.8 689.442 350.536C690.754 351.24 692.194 351.592 693.762 351.592ZM717.361 332.968C718.129 331.464 719.217 330.296 720.625 329.464C722.065 328.632 723.809 328.216 725.857 328.216V332.728H724.705C719.809 332.728 717.361 335.384 717.361 340.696V355H712.993V328.696H717.361V332.968ZM762.531 328.216C764.579 328.216 766.403 328.648 768.003 329.512C769.603 330.344 770.867 331.608 771.795 333.304C772.723 335 773.187 337.064 773.187 339.496V355H768.867V340.12C768.867 337.496 768.211 335.496 766.899 334.12C765.619 332.712 763.875 332.008 761.667 332.008C759.395 332.008 757.587 332.744 756.243 334.216C754.899 335.656 754.227 337.752 754.227 340.504V355H749.907V340.12C749.907 337.496 749.251 335.496 747.939 334.12C746.659 332.712 744.915 332.008 742.707 332.008C740.435 332.008 738.627 332.744 737.283 334.216C735.939 335.656 735.267 337.752 735.267 340.504V355H730.899V328.696H735.267V332.488C736.131 331.112 737.283 330.056 738.723 329.32C740.195 328.584 741.811 328.216 743.571 328.216C745.779 328.216 747.731 328.712 749.427 329.704C751.123 330.696 752.387 332.152 753.219 334.072C753.955 332.216 755.171 330.776 756.867 329.752C758.563 328.728 760.451 328.216 762.531 328.216ZM778.72 341.752C778.72 339.064 779.264 336.712 780.352 334.696C781.44 332.648 782.928 331.064 784.816 329.944C786.736 328.824 788.864 328.264 791.2 328.264C793.504 328.264 795.504 328.76 797.2 329.752C798.896 330.744 800.16 331.992 800.992 333.496V328.696H805.408V355H800.992V350.104C800.128 351.64 798.832 352.92 797.104 353.944C795.408 354.936 793.424 355.432 791.152 355.432C788.816 355.432 786.704 354.856 784.816 353.704C782.928 352.552 781.44 350.936 780.352 348.856C779.264 346.776 778.72 344.408 778.72 341.752ZM800.992 341.8C800.992 339.816 800.592 338.088 799.792 336.616C798.992 335.144 797.904 334.024 796.528 333.256C795.184 332.456 793.696 332.056 792.064 332.056C790.432 332.056 788.944 332.44 787.6 333.208C786.256 333.976 785.184 335.096 784.384 336.568C783.584 338.04 783.184 339.768 783.184 341.752C783.184 343.768 783.584 345.528 784.384 347.032C785.184 348.504 786.256 349.64 787.6 350.44C788.944 351.208 790.432 351.592 792.064 351.592C793.696 351.592 795.184 351.208 796.528 350.44C797.904 349.64 798.992 348.504 799.792 347.032C800.592 345.528 800.992 343.784 800.992 341.8ZM823.955 341.752C823.955 339.064 824.499 336.712 825.587 334.696C826.675 332.648 828.163 331.064 830.051 329.944C831.971 328.824 834.115 328.264 836.483 328.264C838.531 328.264 840.435 328.744 842.195 329.704C843.955 330.632 845.299 331.864 846.227 333.4V319.48H850.643V355H846.227V350.056C845.363 351.624 844.083 352.92 842.387 353.944C840.691 354.936 838.707 355.432 836.435 355.432C834.099 355.432 831.971 354.856 830.051 353.704C828.163 352.552 826.675 350.936 825.587 348.856C824.499 346.776 823.955 344.408 823.955 341.752ZM846.227 341.8C846.227 339.816 845.827 338.088 845.027 336.616C844.227 335.144 843.139 334.024 841.763 333.256C840.419 332.456 838.931 332.056 837.299 332.056C835.667 332.056 834.179 332.44 832.835 333.208C831.491 333.976 830.419 335.096 829.619 336.568C828.819 338.04 828.419 339.768 828.419 341.752C828.419 343.768 828.819 345.528 829.619 347.032C830.419 348.504 831.491 349.64 832.835 350.44C834.179 351.208 835.667 351.592 837.299 351.592C838.931 351.592 840.419 351.208 841.763 350.44C843.139 349.64 844.227 348.504 845.027 347.032C845.827 345.528 846.227 343.784 846.227 341.8ZM882.024 340.84C882.024 341.672 881.976 342.552 881.88 343.48H860.856C861.016 346.072 861.896 348.104 863.496 349.576C865.128 351.016 867.096 351.736 869.4 351.736C871.288 351.736 872.856 351.304 874.104 350.44C875.384 349.544 876.28 348.36 876.792 346.888H881.496C880.792 349.416 879.384 351.48 877.272 353.08C875.16 354.648 872.536 355.432 869.4 355.432C866.904 355.432 864.664 354.872 862.68 353.752C860.728 352.632 859.192 351.048 858.072 349C856.952 346.92 856.392 344.52 856.392 341.8C856.392 339.08 856.936 336.696 858.024 334.648C859.112 332.6 860.632 331.032 862.584 329.944C864.568 328.824 866.84 328.264 869.4 328.264C871.896 328.264 874.104 328.808 876.024 329.896C877.944 330.984 879.416 332.488 880.44 334.408C881.496 336.296 882.024 338.44 882.024 340.84ZM877.512 339.928C877.512 338.264 877.144 336.84 876.408 335.656C875.672 334.44 874.664 333.528 873.384 332.92C872.136 332.28 870.744 331.96 869.208 331.96C867 331.96 865.112 332.664 863.544 334.072C862.008 335.48 861.128 337.432 860.904 339.928H877.512ZM509.696 386.84C509.696 387.672 509.648 388.552 509.552 389.48H488.528C488.688 392.072 489.568 394.104 491.168 395.576C492.8 397.016 494.768 397.736 497.072 397.736C498.96 397.736 500.528 397.304 501.776 396.44C503.056 395.544 503.952 394.36 504.464 392.888H509.168C508.464 395.416 507.056 397.48 504.944 399.08C502.832 400.648 500.208 401.432 497.072 401.432C494.576 401.432 492.336 400.872 490.352 399.752C488.4 398.632 486.864 397.048 485.744 395C484.624 392.92 484.064 390.52 484.064 387.8C484.064 385.08 484.608 382.696 485.696 380.648C486.784 378.6 488.304 377.032 490.256 375.944C492.24 374.824 494.512 374.264 497.072 374.264C499.568 374.264 501.776 374.808 503.696 375.896C505.616 376.984 507.088 378.488 508.112 380.408C509.168 382.296 509.696 384.44 509.696 386.84ZM505.184 385.928C505.184 384.264 504.816 382.84 504.08 381.656C503.344 380.44 502.336 379.528 501.056 378.92C499.808 378.28 498.416 377.96 496.88 377.96C494.672 377.96 492.784 378.664 491.216 380.072C489.68 381.48 488.8 383.432 488.576 385.928H505.184ZM524.774 401.432C522.758 401.432 520.95 401.096 519.35 400.424C517.75 399.72 516.486 398.76 515.558 397.544C514.63 396.296 514.118 394.872 514.022 393.272H518.534C518.662 394.584 519.27 395.656 520.358 396.488C521.478 397.32 522.934 397.736 524.726 397.736C526.39 397.736 527.702 397.368 528.662 396.632C529.622 395.896 530.102 394.968 530.102 393.848C530.102 392.696 529.59 391.848 528.566 391.304C527.542 390.728 525.958 390.168 523.814 389.624C521.862 389.112 520.262 388.6 519.014 388.088C517.798 387.544 516.742 386.76 515.846 385.736C514.982 384.68 514.55 383.304 514.55 381.608C514.55 380.264 514.95 379.032 515.75 377.912C516.55 376.792 517.686 375.912 519.158 375.272C520.63 374.6 522.31 374.264 524.198 374.264C527.11 374.264 529.462 375 531.254 376.472C533.046 377.944 534.006 379.96 534.134 382.52H529.766C529.67 381.144 529.11 380.04 528.086 379.208C527.094 378.376 525.75 377.96 524.054 377.96C522.486 377.96 521.238 378.296 520.31 378.968C519.382 379.64 518.918 380.52 518.918 381.608C518.918 382.472 519.19 383.192 519.734 383.768C520.31 384.312 521.014 384.76 521.846 385.112C522.71 385.432 523.894 385.8 525.398 386.216C527.286 386.728 528.822 387.24 530.006 387.752C531.19 388.232 532.198 388.968 533.03 389.96C533.894 390.952 534.342 392.248 534.374 393.848C534.374 395.288 533.974 396.584 533.174 397.736C532.374 398.888 531.238 399.8 529.766 400.472C528.326 401.112 526.662 401.432 524.774 401.432ZM545.868 378.296V393.8C545.868 395.08 546.14 395.992 546.684 396.536C547.228 397.048 548.172 397.304 549.516 397.304H552.732V401H548.796C546.364 401 544.54 400.44 543.324 399.32C542.108 398.2 541.5 396.36 541.5 393.8V378.296H538.092V374.696H541.5V368.072H545.868V374.696H552.732V378.296H545.868ZM581.352 374.696V401H576.984V397.112C576.152 398.456 574.984 399.512 573.48 400.28C572.008 401.016 570.376 401.384 568.584 401.384C566.536 401.384 564.696 400.968 563.064 400.136C561.432 399.272 560.136 397.992 559.176 396.296C558.248 394.6 557.784 392.536 557.784 390.104V374.696H562.104V389.528C562.104 392.12 562.76 394.12 564.072 395.528C565.384 396.904 567.176 397.592 569.448 397.592C571.784 397.592 573.624 396.872 574.968 395.432C576.312 393.992 576.984 391.896 576.984 389.144V374.696H581.352ZM587.095 387.752C587.095 385.064 587.639 382.712 588.727 380.696C589.815 378.648 591.303 377.064 593.191 375.944C595.111 374.824 597.255 374.264 599.623 374.264C601.671 374.264 603.575 374.744 605.335 375.704C607.095 376.632 608.439 377.864 609.367 379.4V365.48H613.783V401H609.367V396.056C608.503 397.624 607.223 398.92 605.527 399.944C603.831 400.936 601.847 401.432 599.575 401.432C597.239 401.432 595.111 400.856 593.191 399.704C591.303 398.552 589.815 396.936 588.727 394.856C587.639 392.776 587.095 390.408 587.095 387.752ZM609.367 387.8C609.367 385.816 608.967 384.088 608.167 382.616C607.367 381.144 606.279 380.024 604.903 379.256C603.559 378.456 602.071 378.056 600.439 378.056C598.807 378.056 597.319 378.44 595.975 379.208C594.631 379.976 593.559 381.096 592.759 382.568C591.959 384.04 591.559 385.768 591.559 387.752C591.559 389.768 591.959 391.528 592.759 393.032C593.559 394.504 594.631 395.64 595.975 396.44C597.319 397.208 598.807 397.592 600.439 397.592C602.071 397.592 603.559 397.208 604.903 396.44C606.279 395.64 607.367 394.504 608.167 393.032C608.967 391.528 609.367 389.784 609.367 387.8ZM632.637 401.432C630.173 401.432 627.933 400.872 625.917 399.752C623.933 398.632 622.365 397.048 621.213 395C620.093 392.92 619.533 390.52 619.533 387.8C619.533 385.112 620.109 382.744 621.261 380.696C622.445 378.616 624.045 377.032 626.061 375.944C628.077 374.824 630.333 374.264 632.829 374.264C635.325 374.264 637.581 374.824 639.597 375.944C641.613 377.032 643.197 378.6 644.349 380.648C645.533 382.696 646.125 385.08 646.125 387.8C646.125 390.52 645.517 392.92 644.301 395C643.117 397.048 641.501 398.632 639.453 399.752C637.405 400.872 635.133 401.432 632.637 401.432ZM632.637 397.592C634.205 397.592 635.677 397.224 637.053 396.488C638.429 395.752 639.533 394.648 640.365 393.176C641.229 391.704 641.661 389.912 641.661 387.8C641.661 385.688 641.245 383.896 640.413 382.424C639.581 380.952 638.493 379.864 637.149 379.16C635.805 378.424 634.349 378.056 632.781 378.056C631.181 378.056 629.709 378.424 628.365 379.16C627.053 379.864 625.997 380.952 625.197 382.424C624.397 383.896 623.997 385.688 623.997 387.8C623.997 389.944 624.381 391.752 625.149 393.224C625.949 394.696 627.005 395.8 628.317 396.536C629.629 397.24 631.069 397.592 632.637 397.592ZM661.18 401.432C659.164 401.432 657.356 401.096 655.756 400.424C654.156 399.72 652.892 398.76 651.964 397.544C651.036 396.296 650.524 394.872 650.428 393.272H654.94C655.068 394.584 655.676 395.656 656.764 396.488C657.884 397.32 659.34 397.736 661.132 397.736C662.796 397.736 664.108 397.368 665.068 396.632C666.028 395.896 666.508 394.968 666.508 393.848C666.508 392.696 665.996 391.848 664.972 391.304C663.948 390.728 662.364 390.168 660.22 389.624C658.268 389.112 656.668 388.6 655.42 388.088C654.204 387.544 653.148 386.76 652.252 385.736C651.388 384.68 650.956 383.304 650.956 381.608C650.956 380.264 651.356 379.032 652.156 377.912C652.956 376.792 654.092 375.912 655.564 375.272C657.036 374.6 658.716 374.264 660.604 374.264C663.516 374.264 665.868 375 667.66 376.472C669.452 377.944 670.412 379.96 670.54 382.52H666.172C666.076 381.144 665.516 380.04 664.492 379.208C663.5 378.376 662.156 377.96 660.46 377.96C658.892 377.96 657.644 378.296 656.716 378.968C655.788 379.64 655.324 380.52 655.324 381.608C655.324 382.472 655.596 383.192 656.14 383.768C656.716 384.312 657.42 384.76 658.252 385.112C659.116 385.432 660.3 385.8 661.804 386.216C663.692 386.728 665.228 387.24 666.412 387.752C667.596 388.232 668.604 388.968 669.436 389.96C670.3 390.952 670.748 392.248 670.78 393.848C670.78 395.288 670.38 396.584 669.58 397.736C668.78 398.888 667.644 399.8 666.172 400.472C664.732 401.112 663.068 401.432 661.18 401.432ZM701.215 401.432C698.751 401.432 696.511 400.872 694.495 399.752C692.511 398.632 690.943 397.048 689.791 395C688.671 392.92 688.111 390.52 688.111 387.8C688.111 385.112 688.687 382.744 689.839 380.696C691.023 378.616 692.623 377.032 694.639 375.944C696.655 374.824 698.911 374.264 701.407 374.264C703.903 374.264 706.159 374.824 708.175 375.944C710.191 377.032 711.775 378.6 712.927 380.648C714.111 382.696 714.703 385.08 714.703 387.8C714.703 390.52 714.095 392.92 712.879 395C711.695 397.048 710.079 398.632 708.031 399.752C705.983 400.872 703.711 401.432 701.215 401.432ZM701.215 397.592C702.783 397.592 704.255 397.224 705.631 396.488C707.007 395.752 708.111 394.648 708.943 393.176C709.807 391.704 710.239 389.912 710.239 387.8C710.239 385.688 709.823 383.896 708.991 382.424C708.159 380.952 707.071 379.864 705.727 379.16C704.383 378.424 702.927 378.056 701.359 378.056C699.759 378.056 698.287 378.424 696.943 379.16C695.631 379.864 694.575 380.952 693.775 382.424C692.975 383.896 692.575 385.688 692.575 387.8C692.575 389.944 692.959 391.752 693.727 393.224C694.527 394.696 695.583 395.8 696.895 396.536C698.207 397.24 699.647 397.592 701.215 397.592ZM733.262 374.216C736.462 374.216 739.054 375.192 741.038 377.144C743.022 379.064 744.014 381.848 744.014 385.496V401H739.694V386.12C739.694 383.496 739.038 381.496 737.726 380.12C736.414 378.712 734.622 378.008 732.35 378.008C730.046 378.008 728.206 378.728 726.83 380.168C725.486 381.608 724.814 383.704 724.814 386.456V401H720.446V374.696H724.814V378.44C725.678 377.096 726.846 376.056 728.318 375.32C729.822 374.584 731.47 374.216 733.262 374.216ZM755.517 365.48V401H751.149V365.48H755.517ZM765.218 370.424C764.386 370.424 763.682 370.136 763.106 369.56C762.53 368.984 762.242 368.28 762.242 367.448C762.242 366.616 762.53 365.912 763.106 365.336C763.682 364.76 764.386 364.472 765.218 364.472C766.018 364.472 766.69 364.76 767.234 365.336C767.81 365.912 768.098 366.616 768.098 367.448C768.098 368.28 767.81 368.984 767.234 369.56C766.69 370.136 766.018 370.424 765.218 370.424ZM767.33 374.696V401H762.962V374.696H767.33ZM787.59 374.216C790.79 374.216 793.382 375.192 795.366 377.144C797.35 379.064 798.342 381.848 798.342 385.496V401H794.022V386.12C794.022 383.496 793.366 381.496 792.054 380.12C790.742 378.712 788.95 378.008 786.678 378.008C784.374 378.008 782.534 378.728 781.158 380.168C779.814 381.608 779.142 383.704 779.142 386.456V401H774.774V374.696H779.142V378.44C780.006 377.096 781.174 376.056 782.646 375.32C784.15 374.584 785.798 374.216 787.59 374.216ZM829.477 386.84C829.477 387.672 829.429 388.552 829.333 389.48H808.309C808.469 392.072 809.349 394.104 810.949 395.576C812.581 397.016 814.549 397.736 816.853 397.736C818.741 397.736 820.309 397.304 821.557 396.44C822.837 395.544 823.733 394.36 824.245 392.888H828.949C828.245 395.416 826.837 397.48 824.725 399.08C822.613 400.648 819.989 401.432 816.853 401.432C814.357 401.432 812.117 400.872 810.133 399.752C808.181 398.632 806.645 397.048 805.525 395C804.405 392.92 803.845 390.52 803.845 387.8C803.845 385.08 804.389 382.696 805.477 380.648C806.565 378.6 808.085 377.032 810.037 375.944C812.021 374.824 814.293 374.264 816.853 374.264C819.349 374.264 821.557 374.808 823.477 375.896C825.397 376.984 826.869 378.488 827.893 380.408C828.949 382.296 829.477 384.44 829.477 386.84ZM824.965 385.928C824.965 384.264 824.597 382.84 823.861 381.656C823.125 380.44 822.117 379.528 820.837 378.92C819.589 378.28 818.197 377.96 816.661 377.96C814.453 377.96 812.565 378.664 810.997 380.072C809.461 381.48 808.581 383.432 808.357 385.928H824.965ZM836.635 401.288C835.803 401.288 835.099 401 834.523 400.424C833.947 399.848 833.659 399.144 833.659 398.312C833.659 397.48 833.947 396.776 834.523 396.2C835.099 395.624 835.803 395.336 836.635 395.336C837.435 395.336 838.107 395.624 838.651 396.2C839.227 396.776 839.515 397.48 839.515 398.312C839.515 399.144 839.227 399.848 838.651 400.424C838.107 401 837.435 401.288 836.635 401.288Z" fill="#D4C2FF"/>
</svg>
